<mxfile host="app.diagrams.net" modified="2024-02-08T06:07:13.604Z" agent="Mozilla/5.0 (Windows NT 10.0; Win64; x64) AppleWebKit/537.36 (KHTML, like Gecko) Chrome/121.0.0.0 Safari/537.36" version="23.1.2" etag="SJklbPq6fpN6vnR2cF7T" type="github">
  <diagram name="Page-1" id="ws4wgkN9PwfsCv6M4QJT">
    <mxGraphModel>
      <root>
        <mxCell id="0" />
        <mxCell id="1" parent="0" />
      </root>
    </mxGraphModel>
  </diagram>
</mxfile>
